<?xml version="1.0" encoding="utf-8"?>
<!-- Generator: Adobe Illustrator 24.0.1, SVG Export Plug-In . SVG Version: 6.00 Build 0)  -->
<svg version="1.1"
	 id="svg20" inkscape:version="0.92.4 (5da689c313, 2019-01-14)" sodipodi:docname="Facebook Group Logo.svg" xmlns:cc="http://creativecommons.org/ns#" xmlns:dc="http://purl.org/dc/elements/1.1/" xmlns:inkscape="http://www.inkscape.org/namespaces/inkscape" xmlns:rdf="http://www.w3.org/1999/02/22-rdf-syntax-ns#" xmlns:sodipodi="http://sodipodi.sourceforge.net/DTD/sodipodi-0.dtd" xmlns:svg="http://www.w3.org/2000/svg"
	 xmlns="http://www.w3.org/2000/svg" xmlns:xlink="http://www.w3.org/1999/xlink" x="0px" y="0px" viewBox="0 0 800 88"
	 style="enable-background:new 0 0 800 88;" xml:space="preserve">
<style type="text/css">
	.st0{fill-rule:evenodd;clip-rule:evenodd;fill:#FFFFFF;}
</style>
<sodipodi:namedview  bordercolor="#666666" borderopacity="1" fit-margin-bottom="0" fit-margin-left="0" fit-margin-right="0" fit-margin-top="0" gridtolerance="10" guidetolerance="10" id="namedview22" inkscape:current-layer="svg20" inkscape:cx="438.97473" inkscape:cy="93.958658" inkscape:pageopacity="0" inkscape:pageshadow="2" inkscape:window-height="705" inkscape:window-maximized="1" inkscape:window-width="1366" inkscape:window-x="-8" inkscape:window-y="-8" inkscape:zoom="1.2162237" objecttolerance="10" pagecolor="#ffffff" showgrid="false">
	</sodipodi:namedview>
<g id="g3745">
	<path id="Fill-11" inkscape:connector-curvature="0" class="st0" d="M63.5,2.8v11.2c0,0.7-0.5,1.2-1.2,1.2H14.4v22.8h39.5
		c0.7,0,1.2,0.5,1.2,1.2v11.2c0,0.7-0.5,1.2-1.2,1.2H14.4v33.7c0,0.7-0.5,1.2-1.2,1.2h-12C0.5,86.4,0,86,0,85.2V2.8
		c0-0.7,0.5-1.2,1.2-1.2h61.1C63,1.6,63.5,2.1,63.5,2.8"/>
	<path id="Fill-12" inkscape:connector-curvature="0" class="st0" d="M135.7,50.6c-4.4-12.2-9.3-24.5-14.4-35.6h-2.8
		c-5,11.2-10,23.4-14.4,35.6L135.7,50.6z M161.1,86.4h-13.2c-0.7,0-1.2-0.4-1.4-1.1c-1.8-7-3.9-14.3-6.3-21.7H99.7
		c-2.4,7.4-4.5,14.7-6.2,21.7c-0.2,0.7-0.7,1.1-1.4,1.1H79.3c-0.8,0-1.3-0.5-1.1-1.3c7.6-27,19.3-56.9,31-82
		c0.5-1.2,1.2-1.6,2.4-1.6h17.2c1.2,0,1.8,0.4,2.4,1.6c11.9,25,23.3,54.9,31,82C162.4,86,162,86.4,161.1,86.4z"/>
	<path id="Fill-13" inkscape:connector-curvature="0" class="st0" d="M182.8,44.7c0-26.3,17.3-44.7,42-44.7h1.8
		c15.5,0,27.5,7.9,33.9,19.3c0.4,0.7,0.3,1.3-0.4,1.7l-10.7,5.3c-0.7,0.4-1.6,0.4-2.1-0.5c-4.5-7.8-11.2-11.9-21.1-11.9h-1.8
		c-15.6,0-26.3,12.4-26.3,30.3c0,18,10.5,30.1,26.3,30.1h1.8c10.2,0,16.1-3.5,20.7-8.7c0.6-0.7,1.3-0.8,2-0.4l11,5.3
		c0.4,0.2,0.6,0.5,0.6,0.8c0,0.3-0.1,0.5-0.4,0.9C253.3,82,241.2,88,226.4,88h-1.8C199.4,88,182.8,70.7,182.8,44.7"/>
	<path id="Fill-14" inkscape:connector-curvature="0" class="st0" d="M357,74.1v11.2c0,0.7-0.5,1.2-1.2,1.2h-63.6
		c-0.7,0-1.2-0.5-1.2-1.2V2.8c0-0.7,0.5-1.2,1.2-1.2h62.5c0.7,0,1.2,0.5,1.2,1.2v11.2c0,0.7-0.5,1.2-1.2,1.2h-49.3v22.1h40.1
		c0.7,0,1.2,0.5,1.2,1.2v11c0,0.7-0.5,1.2-1.2,1.2h-40.1v22.2h50.4C356.5,72.9,357,73.4,357,74.1"/>
	<path id="Fill-15" inkscape:connector-curvature="0" class="st0" d="M451.7,61.9c0-7.9-5.2-11.5-16.7-11.5h-28.5v22.8H435
		C446.7,73.2,451.7,69.8,451.7,61.9 M431,14.8h-24.5v22.8H431c11,0,16-3.6,16-11.4C447,18.4,442,14.8,431,14.8 M466.5,63.2
		c0,14.9-11.4,23.3-31.5,23.3h-41.7c-0.7,0-1.2-0.5-1.2-1.2V2.8c0-0.7,0.5-1.2,1.2-1.2h38c19.6,0,30.2,7.8,30.2,21.9
		c0,9.3-4.7,15.5-14.3,18.3C460.7,44.7,466.5,52.7,466.5,63.2"/>
	<path id="Fill-16" inkscape:connector-curvature="0" class="st0" d="M537.3,74.2c17.4,0,28.3-11.9,28.3-30.2
		c0-18.2-11-30.2-28.3-30.2h-1.8c-17.4,0-28.3,11.9-28.3,30.2c0,18.2,11,30.2,28.3,30.2H537.3z M491.9,44c0-25.6,17-44,43.6-44h1.8
		c26.6,0,43.6,18.4,43.6,44c0,25.6-17,44-43.6,44h-1.8C508.8,88,491.9,69.6,491.9,44z"/>
	<path id="Fill-17" inkscape:connector-curvature="0" class="st0" d="M650.9,74.2c17.4,0,28.3-11.9,28.3-30.2
		c0-18.2-11-30.2-28.3-30.2h-1.8c-17.4,0-28.3,11.9-28.3,30.2c0,18.2,11,30.2,28.3,30.2H650.9z M605.5,44c0-25.6,17-44,43.6-44h1.8
		c26.6,0,43.6,18.4,43.6,44c0,25.6-17,44-43.6,44h-1.8C622.4,88,605.5,69.6,605.5,44z"/>
	<path id="Fill-18" inkscape:connector-curvature="0" class="st0" d="M799,86.4h-15.6c-1,0-1.5-0.2-2.1-1
		c-11-12.9-23.9-25.8-34.9-35.2h-7v35c0,0.7-0.5,1.2-1.2,1.2h-12c-0.7,0-1.2-0.5-1.2-1.2V2.8c0-0.7,0.5-1.2,1.2-1.2h12
		c0.7,0,1.2,0.5,1.2,1.2v33.5h7.1c11.8-10.7,22.7-22.2,31.6-33.8c0.6-0.8,1.1-0.9,1.8-0.9h14.8c0.7,0,1.1,0.4,1.1,0.9
		c0,0.2-0.1,0.5-0.4,0.9c-13,16.1-25.9,29.2-37.9,39.4c15,12.7,29.3,26.9,42.2,42.2C800.3,85.7,800,86.4,799,86.4"/>
</g>
</svg>
