<?xml version="1.0" encoding="utf-8"?>
<!-- Generator: Adobe Illustrator 24.0.1, SVG Export Plug-In . SVG Version: 6.00 Build 0)  -->
<svg version="1.1" id="Layer_1" xmlns="http://www.w3.org/2000/svg" xmlns:xlink="http://www.w3.org/1999/xlink" x="0px" y="0px"
	 viewBox="0 0 357.4 90" style="enable-background:new 0 0 357.4 90;" xml:space="preserve">
<style type="text/css">
	.st0{fill-rule:evenodd;clip-rule:evenodd;fill:#FCFCFC;}
</style>
<g>
	<path class="st0" d="M274.8,90H350c4.1,0,7.4-3.3,7.4-7.4V7.4c0-4.1-3.3-7.4-7.4-7.4h-75.2c-4.1,0-7.4,3.3-7.4,7.4v75.2
		C267.4,86.7,270.7,90,274.8,90z M301.8,34.4h12.6v6.3c1.7-3.4,6.6-7,13.1-7c12.4,0,16.7,5.6,16.7,19v24H331V55.5
		c0-7-1.4-10.9-6.5-10.9c-6.9,0-9.4,5.3-9.4,10.9v21.2h-13.2L301.8,34.4L301.8,34.4z M280.6,76.8h13.2V34.4h-13.2V76.8z M295.3,19.9
		c0,4.5-3.6,8.1-8.1,8.1s-8.1-3.6-8.1-8.1s3.6-8.1,8.1-8.1S295.3,15.4,295.3,19.9z"/>
	<path class="st0" d="M254.1,76.8h-11.4V72h-0.2c-1.4,2.2-6.3,5.4-12.2,5.4c-14.4,0-21.2-9.1-21.2-21.8s7.1-21.8,19.9-21.8
		c6.2,0,9.8,2.3,11.9,5.4V13.3h13.2L254.1,76.8L254.1,76.8z M231.5,43.9c-6.1,0-9.7,5-9.7,12s3.6,11.3,9.7,11.3
		c6.2,0,9.9-4.3,9.9-11.3C241.4,48.9,237.6,43.9,231.5,43.9z M202.4,69.7c-3.4,4.3-10,7.7-19.7,7.7c-13.1,0-21.5-8.9-21.5-22.5
		c0-11.6,8.2-21.2,22.5-21.2c12.1,0,20.6,8.5,20.6,22.1c0,2.6-0.6,5-0.6,5h-30.3l0.1,0.6c1,3.3,4.3,6.7,9.8,6.7
		c4.9,0,9.2-2.5,11.1-4.7L202.4,69.7L202.4,69.7z M192.5,51c-0.5-4.4-4.3-7.9-9.2-7.9c-5.9,0-9.8,3.8-10.1,7.9H192.5z M119.1,13.2
		h13.2v38.5L147,34.4h16l-18.5,20.2l18.8,22.1H148l-15.7-19.6v19.6h-13.2L119.1,13.2L119.1,13.2z M68.8,34.4h11.5v5.9h0.2
		c1.8-3.4,7.2-6.6,13.8-6.6c13.6,0,16.9,7.7,16.9,19.3v23.7H98V55.8c0-5-0.3-11.5-7.1-11.5c-7,0-8.7,5.9-8.7,11.5v20.9H69L68.8,34.4
		L68.8,34.4z M54.3,13.6c4,0,7.6,3.6,7.6,7.6s-3.6,7.6-7.6,7.6s-7.6-3.6-7.6-7.6S50.3,13.6,54.3,13.6z M47.7,76.8h13.2V34.4H47.7
		V76.8z M0,13.2h13.2v50.3h26.5v13.2H0V13.2z"/>
</g>
</svg>
