<?xml version="1.0" encoding="utf-8"?>
<!-- Generator: Adobe Illustrator 24.0.1, SVG Export Plug-In . SVG Version: 6.00 Build 0)  -->
<svg version="1.1"
	 id="svg2" xmlns:cc="http://creativecommons.org/ns#" xmlns:dc="http://purl.org/dc/elements/1.1/" xmlns:inkscape="http://www.inkscape.org/namespaces/inkscape" xmlns:rdf="http://www.w3.org/1999/02/22-rdf-syntax-ns#" xmlns:sodipodi="http://sodipodi.sourceforge.net/DTD/sodipodi-0.dtd" xmlns:svg="http://www.w3.org/2000/svg"
	 xmlns="http://www.w3.org/2000/svg" xmlns:xlink="http://www.w3.org/1999/xlink" x="0px" y="0px" viewBox="0 0 374.9 75"
	 style="enable-background:new 0 0 374.9 75;" xml:space="preserve">
<style type="text/css">
	.st0{fill:#FFFFFF;}
</style>
<title  id="title4225">Twitter logo</title>
<sodipodi:namedview  bordercolor="#666666" borderopacity="1.0" fit-margin-bottom="0" fit-margin-left="0" fit-margin-right="0" fit-margin-top="0" id="base" inkscape:current-layer="g4147" inkscape:cx="234.00027" inkscape:cy="54.652165" inkscape:document-units="px" inkscape:pageopacity="0.0" inkscape:pageshadow="2" inkscape:window-height="705" inkscape:window-maximized="1" inkscape:window-width="1366" inkscape:window-x="-8" inkscape:window-y="-8" inkscape:zoom="1.4142136" pagecolor="#ffffff" showgrid="false">
	</sodipodi:namedview>
<g id="layer1" transform="translate(-50.461389,-83.56061)" inkscape:groupmode="layer" inkscape:label="Capa 1">
	<g id="g4147" transform="translate(394.28571,-405.71429)">
		
			<path id="path4223" inkscape:connector-curvature="0" sodipodi:nodetypes="csccsscssssscssccsscccsssccccssssssccssscccssscsscccsssssscccssssscsssscsscsscccscccsccsssscsssssscscccsssssssscscccccccssscscssssssssssssscssssssss" class="st0" d="
			M-323.6,563.5c-7.3-2-14-7.5-17.4-14.4c-2.6-5.3-2.6-5.3-2.6-29.6c-0.3-21.1-0.2-21.8,1.2-23.8c3-5,9.6-6,13.9-2.2
			c3,2.7,3.3,3.6,3.3,12.3v7.6h12.7c7.8,0,13.5,0.2,14.6,0.4c6.6,1.4,9.2,9.4,4.6,14.3c-0.5,0.6-1.7,1.4-2.5,1.9
			c-1.4,0.8-2,0.8-15.5,0.9l-14,0.1v3.4c0,4.9,0.5,6.5,2.8,8.8c2.7,2.7,3.4,2.8,15.8,2.8c9.7,0,10.5,0.1,12.1,0.8
			c5.9,2.7,7.4,9.8,3,14.7c-2.6,2.8-2.7,2.9-16.9,2.9C-319.5,564.2-321.3,564.1-323.6,563.5L-323.6,563.5z M-267,563.6
			c-5.8-1.4-11.7-5.8-15.4-11.3c-3.4-5.1-4-8.7-4-22.1c0-11.5,0.2-13,2.4-15.3c2.1-2.1,3.4-2.7,6.4-2.7c2.3,0,2.9,0.1,4.5,1.1
			c1.1,0.7,2.3,1.8,3,3c1.4,2.4,1.1,3.5,1.3,13.5c0.2,11.4,0.2,11.7,1.1,13.1c2.9,4.7,8.9,5.4,12.9,1.5c2.3-2.2,2.5-3.6,2.5-15.3
			c0-9.7,0-10.3,0.8-11.8c1.5-3,3.7-4.6,6.9-5c3.4-0.5,7.1,1.6,8.9,4.9c0.8,1.5,0.8,2.1,1,13c-0.1,9.1,0.4,11.7,1.2,13
			c2.7,4.1,8.5,5,12.1,1.9c2.6-2.3,2.6-2.3,2.8-14.9c0.2-10.9,0.2-11.5,1-13c3.3-6.2,11.6-6.6,15.3-0.7c2.3,3.3,1.3,10.1,1.3,14.6
			c0.2,5.8-0.2,13.3-1.2,15.6c-2.8,7.8-9,14.1-16.4,16.5c-3.4,1.1-10.8,1.4-14.2,0.5c-3.2-0.8-6-2.1-8.7-4l-2.2-1.6l-2.2,1.6
			c-2.7,1.9-5.4,3.2-8.4,4C-257.1,564.4-264,564.4-267,563.6L-267,563.6z M-189.1,563.7c-1.7-0.7-3.8-2.8-4.8-4.5
			c-0.8-1.5-0.8-1.7-0.8-20.8c0-18.4,0-19.4,0.7-20.8c2.9-5.9,10.5-7.2,15-2.6c2.8,2.8,2.8,2.8,2.7,24c-0.1,18.3-0.1,18.7-0.9,20.2
			c-1,1.9-2.9,3.7-4.7,4.5C-183.6,564.4-187.6,564.4-189.1,563.7L-189.1,563.7z M-149.8,563.5c-8.3-2.2-15.6-8.8-18.6-16.9
			c-1.7-4.4-1.8-6.6-1.7-28.4c0.1-20.1,0.1-20.4,0.9-21.9c4-7.4,14.8-6.4,17.2,1.5c0.4,1.3,0.6,3.8,0.6,8.7v6.8l8.9,0.1
			c8.2,0.1,9,0.2,10.4,0.9c6.5,3.5,6.5,12.1,0.1,15.6c-1.5,0.8-2.1,0.8-10.5,1l-8.9,0.1l0.1,4.4c0.1,5.1,0.7,6.6,3.3,8.6
			c2.2,1.7,3.6,2,10,2c5.1,0,5.8,0.1,7.5,0.9c7.2,3.4,7.2,13.5,0,16.8C-132.9,564.5-145.9,564.5-149.8,563.5L-149.8,563.5z
			 M-102.1,563.5c-9.4-2.6-17.2-10.5-19.6-20.1c-0.6-2.4-0.7-4.7-0.7-24c0.1-20-0.8-19.2,1-23.3c2.2-4.1,6.6-5.9,11.3-4.6
			c2,0.5,5.3,3.8,5.8,5.8c0.2,0.8,0.4,4.7,0.4,8.7l0,7.2h7.6c8.7,0,11.1,0.3,13.2,1.8c4.6,3.3,4.7,10.6,0.2,13.9
			c-2.2,1.6-4.3,1.9-13.1,1.9h-7.9v3.4c0,4.5,0.5,6.4,2.3,8.4c2.4,2.7,3.3,3,11.1,3.2c6.7,0.2,6.8,0.2,8.6,1.3
			c2.1,1.3,4,4.2,4.4,6.5c0.5,3.4-1.2,7.3-4.3,9.3l-1.6,1l-8.1,0.1C-98.3,564.2-99.9,564.1-102.1,563.5L-102.1,563.5z M-55.3,563.7
			c-5.5-1.5-9.5-3.9-13.5-8.1c-4.8-5.1-7-10.7-7-18.1c0-4.5,0.8-8,2.6-11.7c1.9-3.9,4-6.5,7-8.6c8.9-6.3,24.6-6.7,34.6-0.9
			c3.6,2.1,7.2,6.1,9,9.7c3.6,7.4,3.3,14.1-0.9,16.2c-1.4,0.8-2.1,0.8-17.3,0.9l-15.8,0.1v1c0,1.5,2.4,3.6,5.1,4.4
			c1.8,0.5,4,0.6,12.3,0.6c5.6,0,10.7,0.2,11.4,0.4c6.5,1.8,7.7,10.3,2.1,13.7c-1.8,1.2-2.9,0.9-14.7,0.9
			C-50.1,564.2-53.9,564-55.3,563.7L-55.3,563.7z M-38.8,530.4c-0.7-2.4-2.7-3.8-6.4-4.4c-3.9-0.7-9.4,0.9-10.5,3.1
			c-0.5,1-0.9,2.1-0.9,2.1s3.3,0.1,9.1,0.1h9L-38.8,530.4z M-10.6,563.5c-1.9-1-4-3.5-4.5-5.3c-0.3-1.1-0.4-5.2-0.3-12.9
			c0.1-11.1,0.2-11.3,1.2-14.4c2.7-8,9.8-14.6,18.1-16.8c3-0.8,17.1-1.2,20.2-0.6c4.3,0.9,7,4.2,7,8.3c0,3.6-1.6,6.3-4.6,7.9
			c-1.4,0.8-2.2,0.8-10.4,1c-8.4,0.2-8.9,0.2-10.2,1.1c-1.8,1.1-3.1,2.8-3.6,4.7c-0.2,0.9-0.4,5.4-0.4,11.3c0,9.8,0,9.8-1,11.7
			c-0.7,1.3-1.5,2.3-2.7,3.2c-1.5,1.1-2.1,1.2-4.6,1.3C-8.6,564.2-9.5,564.1-10.6,563.5L-10.6,563.5z M-189.6,506.7
			c-5.9-3-7-10.8-2.1-15.1c1.9-1.7,3.5-2.3,6.1-2.3c3.7,0,6.6,1.7,8.3,5C-173.2,502-181.7,510.6-189.6,506.7L-189.6,506.7z"/>
	</g>
</g>
</svg>
